<svg width="65" height="56" viewBox="0 0 65 56" fill="none" xmlns="http://www.w3.org/2000/svg">
<path d="M20.0267 12.1246C20.2691 11.0974 21.7309 11.0974 21.9733 12.1246L24.8673 24.3891C24.9543 24.7578 25.2422 25.0457 25.6109 25.1327L37.8754 28.0267C38.9026 28.2691 38.9026 29.7309 37.8754 29.9733L25.6109 32.8673C25.2422 32.9543 24.9543 33.2422 24.8673 33.6109L21.9733 45.8754C21.7309 46.9026 20.2691 46.9026 20.0267 45.8754L17.1327 33.6109C17.0457 33.2422 16.7578 32.9543 16.3891 32.8673L4.12455 29.9733C3.09744 29.7309 3.09744 28.2691 4.12455 28.0267L16.3891 25.1327C16.7578 25.0457 17.0457 24.7578 17.1327 24.3891L20.0267 12.1246Z" fill="url(#paint0_radial_125_2267)"/>
<path d="M46.5267 39.1246C46.7691 38.0974 48.2309 38.0974 48.4733 39.1246L49.3627 42.8937C49.4497 43.2624 49.7376 43.5503 50.1063 43.6373L53.8754 44.5267C54.9026 44.7691 54.9026 46.2309 53.8754 46.4733L50.1063 47.3627C49.7376 47.4497 49.4497 47.7376 49.3627 48.1063L48.4733 51.8754C48.2309 52.9026 46.7691 52.9026 46.5267 51.8754L45.6373 48.1063C45.5503 47.7376 45.2624 47.4497 44.8937 47.3627L41.1246 46.4733C40.0974 46.2309 40.0974 44.7691 41.1246 44.5267L44.8937 43.6373C45.2624 43.5503 45.5503 43.2624 45.6373 42.8937L46.5267 39.1246Z" fill="url(#paint1_radial_125_2267)"/>
<path d="M53.5267 4.12455C53.7691 3.09744 55.2309 3.09744 55.4733 4.12455L56.3627 7.89371C56.4497 8.26243 56.7376 8.55032 57.1063 8.63732L60.8754 9.52673C61.9026 9.7691 61.9026 11.2309 60.8754 11.4733L57.1063 12.3627C56.7376 12.4497 56.4497 12.7376 56.3627 13.1063L55.4733 16.8754C55.2309 17.9026 53.7691 17.9026 53.5267 16.8754L52.6373 13.1063C52.5503 12.7376 52.2624 12.4497 51.8937 12.3627L48.1246 11.4733C47.0974 11.2309 47.0974 9.7691 48.1246 9.52673L51.8937 8.63732C52.2624 8.55032 52.5503 8.26243 52.6373 7.89371L53.5267 4.12455Z" fill="url(#paint2_radial_125_2267)"/>
<defs>
<radialGradient id="paint0_radial_125_2267" cx="0" cy="0" r="1" gradientUnits="userSpaceOnUse" gradientTransform="translate(11.5 12) rotate(45.9878) scale(41.0183)">
<stop stop-color="#FFADDB"/>
<stop offset="0.281355" stop-color="#C2A5FF"/>
<stop offset="0.593877" stop-color="#88C2FF"/>
<stop offset="1" stop-color="#9CFFAC"/>
</radialGradient>
<radialGradient id="paint1_radial_125_2267" cx="0" cy="0" r="1" gradientUnits="userSpaceOnUse" gradientTransform="translate(42.75 37) rotate(45.9878) scale(20.5091)">
<stop stop-color="#FFADDB"/>
<stop offset="0.281355" stop-color="#C2A5FF"/>
<stop offset="0.593877" stop-color="#88C2FF"/>
<stop offset="1" stop-color="#9CFFAC"/>
</radialGradient>
<radialGradient id="paint2_radial_125_2267" cx="0" cy="0" r="1" gradientUnits="userSpaceOnUse" gradientTransform="translate(49.75 2) rotate(45.9878) scale(20.5091)">
<stop stop-color="#FFADDB"/>
<stop offset="0.281355" stop-color="#C2A5FF"/>
<stop offset="0.593877" stop-color="#88C2FF"/>
<stop offset="1" stop-color="#9CFFAC"/>
</radialGradient>
</defs>
</svg>
