<svg width="24" height="25" viewBox="0 0 24 25" fill="none" xmlns="http://www.w3.org/2000/svg">
<path d="M18 13.5154C18 13.2132 18 13.062 18.0416 12.9273C18.1626 12.5358 18.4814 12.3839 18.8009 12.2249C19.1599 12.046 19.3395 11.9566 19.5174 11.9409C19.7193 11.923 19.9217 11.9706 20.0943 12.0765C20.3232 12.217 20.4828 12.4838 20.6462 12.7008C21.4008 13.703 21.7782 14.2041 21.9162 14.7566C22.0277 15.2025 22.0277 15.669 21.9162 16.1149C21.7148 16.9208 21.0786 17.5965 20.6077 18.2218C20.3668 18.5418 20.2464 18.7017 20.0943 18.795C19.9217 18.9009 19.7193 18.9485 19.5174 18.9306C19.3395 18.9149 19.1599 18.8255 18.8009 18.6466C18.4814 18.4876 18.1626 18.3357 18.0416 17.9442C18 17.8095 18 17.6583 18 17.3561V13.5154Z" stroke="#929FB1" stroke-width="1.5"/>
<path d="M5.99978 13.5157C5.99978 13.1349 5.99 12.7929 5.70853 12.5252C5.60615 12.4279 5.47041 12.3602 5.19896 12.2251C4.83986 12.0463 4.66031 11.9569 4.4824 11.9411C3.94863 11.8939 3.66145 12.2923 3.35363 12.701C2.59897 13.7032 2.22164 14.2042 2.08357 14.7568C1.97214 15.2027 1.97214 15.669 2.08357 16.115C2.28495 16.9209 2.92117 17.5965 3.3921 18.2218C3.68894 18.616 3.9725 18.9757 4.4824 18.9306C4.66031 18.9149 4.83986 18.8255 5.19896 18.6467C5.47041 18.5114 5.60615 18.4438 5.70853 18.3465C5.99 18.0789 5.99978 17.7367 5.99978 17.3561V13.5157Z" stroke="#929FB1" stroke-width="1.5"/>
<path d="M19.9991 11.937V10.8125C19.9991 6.46499 16.4176 2.94067 11.9996 2.94067C7.58152 2.94067 4 6.46499 4 10.8125V11.937" stroke="#929FB1" stroke-width="1.5" stroke-linecap="square" stroke-linejoin="round"/>
<path d="M11.9977 14.4004C10.752 13.7414 7.99771 12.62 6.73429 12.9615C6.49453 13.0616 5.99805 13.4064 5.99805 14.5601L6.09383 20.5374C6.09975 20.9071 6.38606 21.2101 6.74809 21.2612C7.98052 21.4354 10.0798 21.9347 11.9977 22.9414M11.9977 14.4004V22.9414M11.9977 14.4004C13.2434 13.7414 15.9988 12.62 17.2623 12.9615C17.502 13.0616 17.9985 13.4064 17.9985 14.5601L17.9027 20.5374C17.8968 20.9071 17.6105 21.2101 17.2485 21.2612C16.016 21.4354 13.9156 21.9347 11.9977 22.9414" stroke="#929FB1" stroke-width="1.5" stroke-linecap="round" stroke-linejoin="round"/>
</svg>
