<svg width="24" height="24" viewBox="0 0 24 24" fill="none" xmlns="http://www.w3.org/2000/svg">
<path d="M8.0649 11.3742C8.3193 10.1626 9.673 9.2923 12.3802 7.5519C15.3247 5.6589 16.797 4.7124 17.9895 5.0771C18.3934 5.2006 18.7654 5.4177 19.0777 5.7124C20 6.5822 20 8.3882 20 12C20 15.6118 20 17.4178 19.0777 18.2877C18.7654 18.5823 18.3934 18.7994 17.9895 18.9229C16.797 19.2876 15.3247 18.3411 12.3802 16.4481C9.673 14.7077 8.3193 13.8374 8.0649 12.6258C7.9784 12.2135 7.9784 11.7865 8.0649 11.3742Z" stroke="#606E80" stroke-width="1.8" stroke-linejoin="round"/>
<path d="M4 19L4 5" stroke="#606E80" stroke-width="1.8" stroke-linecap="round"/>
</svg>
