<svg width="49" height="48" viewBox="0 0 49 48" fill="none" xmlns="http://www.w3.org/2000/svg">
<path d="M39.8601 24.7906C39.8601 23.8306 39.126 23.0965 38.166 23.0965C37.206 23.0965 36.4719 23.8306 36.4719 24.7906C36.4719 31.3976 31.1072 36.7623 24.5001 36.7623C17.8931 36.7623 12.5284 31.3976 12.5284 24.7906C12.5284 23.8306 11.7943 23.0965 10.8343 23.0965C9.87425 23.0965 9.14014 23.8306 9.14014 24.7906C9.14014 32.64 15.0131 39.2471 22.806 40.0941V44.6118H16.6507C15.6907 44.6118 14.9566 45.3459 14.9566 46.3059C14.9566 47.2659 15.6907 48 16.6507 48H32.3496C33.3095 48 34.0437 47.2659 34.0437 46.3059C34.0437 45.3459 33.3095 44.6118 32.3496 44.6118H26.1943V40.0941C33.9872 39.2471 39.8601 32.64 39.8601 24.7906Z" fill="#07DA83"/>
<path d="M24.4999 0C19.3046 0 15.0693 4.23529 15.0693 9.43059V24.7341C15.0693 29.9859 19.3046 34.1647 24.4999 34.2212C29.6952 34.2212 33.9305 29.9859 33.9305 24.7906V9.43059C33.9305 4.23529 29.6952 0 24.4999 0Z" fill="#07DA83"/>
</svg>
