<svg width="24" height="25" viewBox="0 0 24 25" fill="none" xmlns="http://www.w3.org/2000/svg">
<path d="M2 19.9412V8.49018C2 7.04632 2 6.32438 2.24332 5.75763C2.5467 5.05101 3.10985 4.48786 3.81647 4.18448C4.38322 3.94116 5.09805 3.94116 6.54902 3.94116H7.04311C7.64819 3.94116 8.22075 4.2151 8.60041 4.68625L10.4175 6.94116M10.4175 6.94116H16C17.4001 6.94116 18.1002 6.94116 18.635 7.21364C19.1054 7.45333 19.4878 7.83578 19.7275 8.30618C20 8.84096 20 9.54103 20 10.9412V11.9412M10.4175 6.94116H7" stroke="#07DA83" stroke-width="1.8" stroke-linecap="round" stroke-linejoin="round"/>
<path d="M3.15802 16.4556L3.45643 15.7129C4.19029 13.8861 4.55723 12.9728 5.3224 12.457C6.08757 11.9412 7.07557 11.9412 9.05157 11.9412H17.1119C19.8004 11.9412 21.1446 11.9412 21.7422 12.8199C22.3397 13.6987 21.8405 14.9414 20.842 17.4268L20.5436 18.1695C19.8097 19.9963 19.4428 20.9096 18.6776 21.4254C17.9124 21.9412 16.9244 21.9412 14.9484 21.9412H6.88812C4.19961 21.9412 2.85535 21.9412 2.25782 21.0625C1.66029 20.1837 2.15953 18.941 3.15802 16.4556Z" stroke="#07DA83" stroke-width="1.8" stroke-linejoin="round"/>
</svg>
