<svg width="24" height="25" viewBox="0 0 24 25" fill="none" xmlns="http://www.w3.org/2000/svg">
<path d="M19 10.5619C19 13.1411 17.7302 15.1264 15.7983 16.4329C15.3483 16.7372 15.1233 16.8894 15.0122 17.0624C14.9012 17.2354 14.8633 17.4626 14.7876 17.9169L14.7287 18.27C14.5957 19.0682 14.5292 19.4672 14.2494 19.7042C13.9697 19.9412 13.5651 19.9412 12.7559 19.9412H10.1444C9.33528 19.9412 8.93069 19.9412 8.65095 19.7042C8.3712 19.4672 8.30469 19.0682 8.17166 18.27L8.11281 17.9169C8.03734 17.4641 7.99961 17.2377 7.88968 17.0655C7.77976 16.8933 7.55428 16.7392 7.10332 16.4309C5.1919 15.1244 4 13.1398 4 10.5619C4 6.35306 7.35786 2.94116 11.5 2.94116C12.0137 2.94116 12.5153 2.99364 13 3.0936" stroke="#929FB1" stroke-width="1.8" stroke-linecap="round" stroke-linejoin="round"/>
<path d="M16.5 2.94116L16.7579 3.63819C17.0961 4.55218 17.2652 5.00918 17.5986 5.34255C17.932 5.67593 18.389 5.84503 19.303 6.18324L20 6.44116L19.303 6.69908C18.389 7.03729 17.932 7.2064 17.5986 7.53977C17.2652 7.87314 17.0961 8.33014 16.7579 9.24413L16.5 9.94116L16.2421 9.24413C15.9039 8.33014 15.7348 7.87314 15.4014 7.53977C15.068 7.2064 14.611 7.03729 13.697 6.69908L13 6.44116L13.697 6.18324C14.611 5.84503 15.068 5.67593 15.4014 5.34255C15.7348 5.00918 15.9039 4.55218 16.2421 3.63819L16.5 2.94116Z" stroke="#929FB1" stroke-width="1.8" stroke-linejoin="round"/>
<path d="M13.5 19.9412V20.9412C13.5 21.884 13.5 22.3554 13.2071 22.6483C12.9142 22.9412 12.4428 22.9412 11.5 22.9412C10.5572 22.9412 10.0858 22.9412 9.79289 22.6483C9.5 22.3554 9.5 21.884 9.5 20.9412V19.9412" stroke="#929FB1" stroke-width="1.8" stroke-linejoin="round"/>
</svg>
