<svg width="24" height="25" viewBox="0 0 24 25" fill="none" xmlns="http://www.w3.org/2000/svg">
<path d="M17 11.9412C17 14.7026 14.7614 16.9412 12 16.9412C9.23858 16.9412 7 14.7026 7 11.9412V7.94116C7 5.17974 9.23858 2.94116 12 2.94116" stroke="#07DA83" stroke-width="1.5" stroke-linecap="round" stroke-linejoin="round"/>
<path d="M20 11.9412C20 16.3595 16.4183 19.9412 12 19.9412M12 19.9412C7.58172 19.9412 4 16.3595 4 11.9412M12 19.9412V22.9412" stroke="#07DA83" stroke-width="1.5" stroke-linecap="round" stroke-linejoin="round"/>
<path d="M14.3327 5.58728C15.5394 5.4371 16.4959 4.4806 16.6461 3.27383C16.6689 3.09115 16.8159 2.94116 17 2.94116C17.1841 2.94116 17.3311 3.09115 17.3539 3.27383C17.5041 4.4806 18.4606 5.4371 19.6673 5.58728C19.85 5.61001 20 5.75707 20 5.94116C20 6.12526 19.85 6.27231 19.6673 6.29504C18.4606 6.44522 17.5041 7.40172 17.3539 8.60849C17.3311 8.79117 17.1841 8.94116 17 8.94116C16.8159 8.94116 16.6689 8.79117 16.6461 8.60849C16.4959 7.40172 15.5394 6.44522 14.3327 6.29504C14.15 6.27231 14 6.12526 14 5.94116C14 5.75707 14.15 5.61001 14.3327 5.58728Z" stroke="#07DA83" stroke-width="1.5" stroke-linecap="round" stroke-linejoin="round"/>
</svg>
