<svg width="38" height="38" viewBox="0 0 38 38" fill="none" xmlns="http://www.w3.org/2000/svg">
<path d="M18.9998 34.8333C27.7443 34.8333 34.8332 27.7445 34.8332 19C34.8332 10.2555 27.7443 3.16666 18.9998 3.16666C10.2553 3.16666 3.1665 10.2555 3.1665 19C3.1665 27.7445 10.2553 34.8333 18.9998 34.8333Z" stroke="#606E80" stroke-width="1.8"/>
<path d="M15.0415 17.733V20.267C15.0415 22.6725 15.0415 23.8752 15.7631 24.3615C16.4847 24.8475 17.4716 24.3097 19.4455 23.234L21.7702 21.9668C24.1455 20.6723 25.3332 20.025 25.3332 19C25.3332 17.9749 24.1455 17.3277 21.7702 16.0331L19.4455 14.7661C17.4716 13.6903 16.4847 13.1524 15.7631 13.6385C15.0415 14.1247 15.0415 15.3274 15.0415 17.733Z" fill="#606E80"/>
</svg>
