<svg width="53" height="63" viewBox="0 0 53 63" fill="none" xmlns="http://www.w3.org/2000/svg">
<g clip-path="url(#clip0_213_1740)">
<path fill-rule="evenodd" clip-rule="evenodd" d="M26.5004 11.3189C29.8574 11.3189 32.5788 14.0477 32.5788 17.4138C32.5788 20.7798 29.8574 23.5086 26.5004 23.5086C23.1435 23.5086 20.4221 20.7798 20.4221 17.4138C20.4221 14.0477 23.1435 11.3189 26.5004 11.3189Z" fill="#07DA83"/>
<path fill-rule="evenodd" clip-rule="evenodd" d="M23.3796 6.59924L26.5004 12.0196L32.303 1.94247L33.5747 2.6752L26.4989 14.9647L22.1074 7.33785L23.3796 6.59924Z" fill="#07DA83"/>
<path fill-rule="evenodd" clip-rule="evenodd" d="M22.7438 4.66025C24.0155 4.66025 25.0461 5.694 25.0461 6.96905C25.0461 8.24411 24.0155 9.27786 22.7438 9.27786C21.4721 9.27786 20.4414 8.24411 20.4414 6.96905C20.4414 5.694 21.4721 4.66025 22.7438 4.66025Z" fill="#07DA83"/>
<path d="M32.9388 4.61767C34.2104 4.61767 35.2412 3.58399 35.2412 2.30887C35.2412 1.03375 34.2104 6.10352e-05 32.9388 6.10352e-05C31.6673 6.10352e-05 30.6365 1.03375 30.6365 2.30887C30.6365 3.58399 31.6673 4.61767 32.9388 4.61767Z" fill="#07DA83"/>
<path fill-rule="evenodd" clip-rule="evenodd" d="M47.0909 22.7263V44.5628C47.0909 46.7355 45.1689 47.9886 43.665 49.2372L28.17 62.0979C27.8585 62.3563 27.4517 62.4082 27.086 62.2354C26.7198 62.0627 26.5003 61.7156 26.5003 61.3103V53.8323C26.5003 52.8984 25.7566 52.1329 24.8257 52.1079C15.1186 51.8495 5.90967 49.3341 5.90967 44.5628V22.7263C5.90967 12.6365 47.0914 12.6365 47.0914 22.7263H47.0909Z" fill="#07DA83"/>
<path fill-rule="evenodd" clip-rule="evenodd" d="M41.7462 23.4072C41.4299 23.1786 40.9737 22.9422 40.7361 22.8282C39.6209 22.2937 38.3575 21.9188 37.1582 21.631C33.7479 20.8131 30.0008 20.5184 26.5001 20.5184C22.9994 20.5184 19.2522 20.8131 15.842 21.631C14.6426 21.9188 13.3793 22.2937 12.264 22.8282C12.0264 22.9422 11.5702 23.1782 11.2539 23.4072V43.883C11.5702 44.1116 12.0264 44.348 12.264 44.4621C13.3793 44.9965 14.6426 45.3715 15.842 45.6593C19.2522 46.4772 22.9994 46.7718 26.5001 46.7718C30.0008 46.7718 33.7479 46.4772 37.1582 45.6593C38.3575 45.3715 39.6209 44.9965 40.7361 44.4621C40.9737 44.348 41.4299 44.1121 41.7462 43.883V23.4072Z" fill="white"/>
<path fill-rule="evenodd" clip-rule="evenodd" d="M19.3171 29.1203C20.932 29.1203 22.2409 31.1462 22.2409 33.6454C22.2409 36.1446 20.9315 38.1705 19.3171 38.1705C17.7027 38.1705 16.3933 36.1446 16.3933 33.6454C16.3933 31.1462 17.7022 29.1203 19.3171 29.1203Z" fill="#181D25"/>
<path fill-rule="evenodd" clip-rule="evenodd" d="M33.6835 29.1203C35.2985 29.1203 36.6073 31.1462 36.6073 33.6454C36.6073 36.1446 35.2985 38.1705 33.6835 38.1705C32.0686 38.1705 30.7598 36.1446 30.7598 33.6454C30.7598 31.1462 32.0686 29.1203 33.6835 29.1203Z" fill="#181D25"/>
<path fill-rule="evenodd" clip-rule="evenodd" d="M3.71779 25.8647H4.67413V41.4248H3.71779C1.6731 41.4248 0 39.7474 0 37.6971V29.592C0 27.5417 1.6731 25.8643 3.71779 25.8643V25.8647Z" fill="#07DA83"/>
<path fill-rule="evenodd" clip-rule="evenodd" d="M49.282 25.8647H48.3257V41.4248H49.282C51.3267 41.4248 52.9998 39.7474 52.9998 37.6971V29.592C52.9998 27.5417 51.3267 25.8643 49.282 25.8643V25.8647Z" fill="#07DA83"/>
<path d="M21 43C22.746 41.4908 27.3905 39.3778 32 43" stroke="#181D25" stroke-linecap="round"/>
</g>
<defs>
<clipPath id="clip0_213_1740">
<rect width="53" height="62.3368" fill="white"/>
</clipPath>
</defs>
</svg>
