<svg width="49" height="48" viewBox="0 0 49 48" fill="none" xmlns="http://www.w3.org/2000/svg">
<path d="M4 19.5C3.60218 19.5 3.22064 19.658 2.93933 19.9393C2.65803 20.2206 2.5 20.6022 2.5 21V27C2.5 27.3978 2.65803 27.7794 2.93933 28.0607C3.22064 28.342 3.60218 28.5 4 28.5C4.39782 28.5 4.77936 28.342 5.06067 28.0607C5.34197 27.7794 5.5 27.3978 5.5 27V21C5.5 20.6022 5.34197 20.2206 5.06067 19.9393C4.77936 19.658 4.39782 19.5 4 19.5Z" fill="#07DA83"/>
<path d="M9.125 13.5C8.72718 13.5 8.34564 13.658 8.06433 13.9393C7.78303 14.2206 7.625 14.6022 7.625 15V33C7.625 33.3978 7.78303 33.7794 8.06433 34.0607C8.34564 34.342 8.72718 34.5 9.125 34.5C9.52282 34.5 9.90436 34.342 10.1857 34.0607C10.467 33.7794 10.625 33.3978 10.625 33V15C10.625 14.6022 10.467 14.2206 10.1857 13.9393C9.90436 13.658 9.52282 13.5 9.125 13.5Z" fill="#07DA83"/>
<path d="M14.25 16.5C13.8522 16.5 13.4706 16.658 13.1893 16.9393C12.908 17.2206 12.75 17.6022 12.75 18V30C12.75 30.3978 12.908 30.7794 13.1893 31.0607C13.4706 31.342 13.8522 31.5 14.25 31.5C14.6478 31.5 15.0294 31.342 15.3107 31.0607C15.592 30.7794 15.75 30.3978 15.75 30V18C15.75 17.6022 15.592 17.2206 15.3107 16.9393C15.0294 16.658 14.6478 16.5 14.25 16.5Z" fill="#07DA83"/>
<path d="M19.375 7.5C18.9772 7.5 18.5956 7.65803 18.3143 7.93934C18.033 8.22064 17.875 8.60218 17.875 9V39C17.875 39.3978 18.033 39.7794 18.3143 40.0607C18.5956 40.342 18.9772 40.5 19.375 40.5C19.7728 40.5 20.1544 40.342 20.4357 40.0607C20.717 39.7794 20.875 39.3978 20.875 39V9C20.875 8.60218 20.717 8.22064 20.4357 7.93934C20.1544 7.65803 19.7728 7.5 19.375 7.5Z" fill="#07DA83"/>
<path d="M24.5 14.5C24.1022 14.5 23.7206 14.658 23.4393 14.9393C23.158 15.2206 23 15.6022 23 16V32C23 32.3978 23.158 32.7794 23.4393 33.0607C23.7206 33.342 24.1022 33.5 24.5 33.5C24.8978 33.5 25.2794 33.342 25.5607 33.0607C25.842 32.7794 26 32.3978 26 32V16C26 15.6022 25.842 15.2206 25.5607 14.9393C25.2794 14.658 24.8978 14.5 24.5 14.5Z" fill="#07DA83"/>
<path d="M29.625 11.5C29.2272 11.5 28.8456 11.658 28.5643 11.9393C28.283 12.2206 28.125 12.6022 28.125 13V35C28.125 35.3978 28.283 35.7794 28.5643 36.0607C28.8456 36.342 29.2272 36.5 29.625 36.5C30.0228 36.5 30.4044 36.342 30.6857 36.0607C30.967 35.7794 31.125 35.3978 31.125 35V13C31.125 12.6022 30.967 12.2206 30.6857 11.9393C30.4044 11.658 30.0228 11.5 29.625 11.5Z" fill="#07DA83"/>
<path d="M45 17.5C45.3978 17.5 45.7794 17.658 46.0607 17.9393C46.342 18.2206 46.5 18.6022 46.5 19V29C46.5 29.3978 46.342 29.7794 46.0607 30.0607C45.7794 30.342 45.3978 30.5 45 30.5C44.6022 30.5 44.2206 30.342 43.9393 30.0607C43.658 29.7794 43.5 29.3978 43.5 29V19C43.5 18.6022 43.658 18.2206 43.9393 17.9393C44.2206 17.658 44.6022 17.5 45 17.5Z" fill="#07DA83"/>
<path d="M39.875 14C40.2728 14 40.6544 14.158 40.9357 14.4393C41.217 14.7206 41.375 15.1022 41.375 15.5V32.5C41.375 32.8978 41.217 33.2794 40.9357 33.5607C40.6544 33.842 40.2728 34 39.875 34C39.4772 34 39.0956 33.842 38.8143 33.5607C38.533 33.2794 38.375 32.8978 38.375 32.5V15.5C38.375 15.1022 38.533 14.7206 38.8143 14.4393C39.0956 14.158 39.4772 14 39.875 14Z" fill="#07DA83"/>
<path d="M34.75 4.5C35.1478 4.5 35.5294 4.65803 35.8107 4.93934C36.092 5.22064 36.25 5.60218 36.25 6V42C36.25 42.3978 36.092 42.7794 35.8107 43.0607C35.5294 43.342 35.1478 43.5 34.75 43.5C34.3522 43.5 33.9706 43.342 33.6893 43.0607C33.408 42.7794 33.25 42.3978 33.25 42V6C33.25 5.60218 33.408 5.22064 33.6893 4.93934C33.9706 4.65803 34.3522 4.5 34.75 4.5Z" fill="#07DA83"/>
</svg>
